<?xml version="1.0" standalone="no"?>
<!DOCTYPE svg PUBLIC "-//W3C//DTD SVG 20010904//EN"
 "http://www.w3.org/TR/2001/REC-SVG-20010904/DTD/svg10.dtd">
<svg version="1.0" xmlns="http://www.w3.org/2000/svg"
 width="463.000000pt" height="360.000000pt" viewBox="0 0 463.000000 360.000000"
 preserveAspectRatio="xMidYMid meet">

<g transform="translate(0.000000,360.000000) scale(0.100000,-0.100000)"
fill="#000000" stroke="none">
<path d="M2705 2389 c-106 -36 -255 -108 -344 -167 -35 -24 -70 -41 -77 -38
-8 3 -13 2 -11 -3 1 -4 -25 -30 -58 -58 -33 -27 -81 -73 -107 -100 -26 -28
-50 -48 -55 -44 -4 3 1 -5 12 -18 29 -34 109 -71 177 -82 110 -18 217 16 306
96 44 39 50 50 46 74 -7 34 16 56 51 47 18 -5 25 -13 25 -31 0 -36 -118 -146
-199 -187 -119 -60 -286 -48 -402 29 -39 25 -40 26 -55 7 -76 -95 -205 -325
-219 -391 -4 -18 -1 -49 5 -69 21 -63 27 -64 500 -64 460 0 465 1 489 57 8 20
11 161 9 500 l-3 472 -90 -30z"/>
<path d="M1940 2006 c0 -2 7 -7 16 -10 8 -3 12 -2 9 4 -6 10 -25 14 -25 6z"/>
</g>
</svg>
